<svg xmlns="http://www.w3.org/2000/svg" version="1.1"
     width="512" height="512" x="0" y="0" viewBox="0 0 32 32"
     style="enable-background:new 0 0 512 512" xml:space="preserve" class="">
    <g>
        <path d="M18.885 7.215h-8.6a1.48 1.48 0 0 1-1.48-1.48V3.48c0-.817.663-1.48 1.48-1.48h8.6c.817 0 1.48.663 1.48 1.48v2.255a1.48 1.48 0 0 1-1.48 1.48zM28.83 17.99c-.92-.92-2.42-.92-3.34 0l-1.092 1.098 3.342 3.341 1.09-1.09c.93-.929.93-2.419 0-3.349zM23.34 20.15l-5.83 5.82c-.12.13-.2.29-.23.46l-.44 2.59c-.1.57.4 1.06.97.97l2.59-.44c.17-.03.33-.11.45-.23l5.83-5.83z"
              fill="#7C3AED" class="">
        </path>
        <path d="M23.11 4.61h-1.245v1.125a2.984 2.984 0 0 1-2.98 2.98h-8.6a2.983 2.983 0 0 1-2.98-2.98V4.61H6.04c-1.97 0-3.57 1.6-3.57 3.57v18.25c0 1.97 1.6 3.57 3.57 3.57h9.457a2.309 2.309 0 0 1-.135-1.238l.439-2.583c.078-.458.288-.881.604-1.226l6.365-6.356 1.655-1.664a3.816 3.816 0 0 1 2.253-1.086V8.19a3.559 3.559 0 0 0-3.568-3.58zM13.028 19.443H8.689a.9.9 0 0 1 0-1.8h4.339a.9.9 0 0 1 0 1.8zm5.312-5.108H8.69a.9.9 0 0 1 0-1.8h9.65a.9.9 0 0 1 0 1.8z"
              fill="#7C3AED" class="">

        </path>
    </g>
</svg>